# xmcd
#
# Track frame offsets: 
#        150
#        13748
#        28999
#        42395
#        57181
#        69468
#        80377
#        92934
#        104583
#        118154
#        129567
#        144229
#        154264
#        165889
#        179416
#
# Disc length: 2538 seconds
#
# Revision: 0
# Processed by: cddbd v1.5.2PL0 Copyright (c) Steve Scherf et al.
# Submitted via: ExactAudioCopy v0.99pb5
#
DISCID=cd09e80f
DTITLE=Verschiedene Artisten - La Discothèque Idéale Soul - CD7
DYEAR=2007
DGENRE=Soul
TTITLE0=Ben E. King - Stand by me
TTITLE1=Joe Turner with Van ''Piano Man'' Walls Orchestra - Chains of 
TTITLE1=Love
TTITLE2=Arthur Conley - Take me (Just as I am)
TTITLE3=Aretha Franklin - Do right Woman
TTITLE4=Betty Lavette - You´ll never Change
TTITLE5=Booker T. and the MG´s - Hip Hug-Her
TTITLE6=Clarence Carter - Funky Fever
TTITLE7=Ella Fitzgerald - Get ready
TTITLE8=The Cardinals - The Dooris still open
TTITLE9=Ray Charles - This little Girl of Mine
TTITLE10=Sticks McGhee and His Buddies - Drinkin´ Wine Spo-Dee-O-Dee
TTITLE11=The Bobbettes - Mr.Lee
TTITLE12=Chuck Willis - C. C. Rider
TTITLE13=The Driffters - On Broadway
TTITLE14=Wilson Pickett - Land of 1000 Dances
EXTD=
EXTT0=
EXTT1=
EXTT2=
EXTT3=
EXTT4=
EXTT5=
EXTT6=
EXTT7=
EXTT8=
EXTT9=
EXTT10=
EXTT11=
EXTT12=
EXTT13=
EXTT14=
PLAYORDER=
